<svg xmlns="http://www.w3.org/2000/svg" width="20" height="20" fill="none"><g fill="currentColor"><path d="M10 6.25c-.58 0-1.07.4-1.21.94a.75.75 0 0 1-1.45-.38 2.75 2.75 0 0 1 5.41.69c0 1.21-.65 1.84-1.14 2.3h-.01c-.48.45-.77.73-.86 1.3a.75.75 0 0 1-1.48-.2c.16-1.12.8-1.71 1.25-2.14l.07-.06c.45-.42.67-.66.67-1.2 0-.69-.56-1.25-1.25-1.25zM10 15a1 1 0 1 0 0-2 1 1 0 0 0 0 2z"/><path fill-rule="evenodd" d="M10 1.5a8.5 8.5 0 1 0 0 17 8.5 8.5 0 0 0 0-17zM3 10a7 7 0 1 0 14 0 7 7 0 0 0-14 0z" clip-rule="evenodd"/></g></svg>