<svg xmlns="http://www.w3.org/2000/svg" width="20" height="20" fill="currentColor"><path fill-rule="evenodd" d="M10.37 2h1.31c.95 0 1.71 0 2.33.05.63.05 1.17.16 1.67.41a4.25 4.25 0 0 1 1.86 1.86c.25.5.36 1.04.4 1.67.06.61.06 1.37.06 2.33v3.36c0 .96 0 1.72-.05 2.33a4.39 4.39 0 0 1-.41 1.67 4.25 4.25 0 0 1-1.86 1.86c-.5.25-1.04.36-1.67.41-.62.05-1.38.05-2.33.05H8.32c-.96 0-1.72 0-2.33-.05a4.39 4.39 0 0 1-1.67-.41 4.25 4.25 0 0 1-1.86-1.86 4.39 4.39 0 0 1-.41-1.67C2 13.4 2 12.63 2 11.68V8.32c0-.96 0-1.72.05-2.33.05-.63.16-1.17.41-1.67a4.25 4.25 0 0 1 1.86-1.86c.5-.25 1.04-.36 1.67-.41C6.6 2 7.36 2 8.32 2h2.05ZM5 3.8c.23-.12.51-.2.96-.24a4.24 4.24 0 0 0-.8 1.51C5 5.65 5 6.33 5 7.37v5.7c0 .63 0 1.04.06 1.4a4.25 4.25 0 0 0 .9 1.97A2.67 2.67 0 0 1 5 16.2 2.75 2.75 0 0 1 3.8 15a2.92 2.92 0 0 1-.26-1.11c-.04-.55-.04-1.25-.04-2.24v-3.3c0-1 0-1.7.04-2.24.05-.54.13-.86.26-1.1A2.75 2.75 0 0 1 5 3.8Zm3.8 12.66c.21.04.48.04 1.21.04h1.65c1 0 1.7 0 2.24-.05a2.9 2.9 0 0 0 1.1-.25 2.75 2.75 0 0 0 1.2-1.2c.13-.25.21-.57.26-1.11.04-.55.04-1.25.04-2.24v-3.3c0-1 0-1.7-.04-2.24a2.9 2.9 0 0 0-.26-1.1A2.75 2.75 0 0 0 15 3.8a2.94 2.94 0 0 0-1.11-.26c-.55-.04-1.25-.04-2.24-.04H10.5c-1.22 0-1.66 0-2.01.1A2.75 2.75 0 0 0 6.6 5.5c-.1.35-.11.8-.11 2.01V13c0 .73 0 1 .04 1.21a2.75 2.75 0 0 0 2.25 2.25Zm2.75-9.33.03.02 1.84 1.09.03.01c.3.18.57.34.78.49.2.15.44.35.57.65.17.39.17.83 0 1.22-.13.3-.37.5-.57.65-.2.15-.48.3-.78.49l-.03.01-1.84 1.09-.03.02c-.3.17-.57.33-.8.44-.23.1-.53.22-.86.18a1.54 1.54 0 0 1-1.1-.63 1.6 1.6 0 0 1-.26-.82c-.02-.25-.02-.57-.02-.92V8.88c0-.36 0-.67.02-.92.03-.25.08-.55.27-.82a1.54 1.54 0 0 1 1.09-.63c.33-.04.63.07.86.18.23.1.5.27.8.44ZM10 7.9a.12.12 0 0 0-.05.03.93.93 0 0 0-.02.16c-.02.18-.02.44-.02.83v2.18c0 .4 0 .65.02.83a.86.86 0 0 0 .02.16.11.11 0 0 0 .05.03.9.9 0 0 0 .11-.05c.16-.07.37-.2.71-.4l1.85-1.08.7-.43a.9.9 0 0 0 .1-.1.18.18 0 0 0 0-.1.9.9 0 0 0-.1-.1 10.2 10.2 0 0 0-.7-.43l-1.85-1.09-.7-.4A1.04 1.04 0 0 0 10 7.9Z" clip-rule="evenodd"/></svg>