<svg xmlns="http://www.w3.org/2000/svg" width="800" height="800" viewBox="0 0 32 32"><path d="M25.217 22.402h-2.179c-.825 0-1.08-.656-2.562-2.158-1.291-1.25-1.862-1.418-2.179-1.418-.445 0-.572.127-.572.741v1.968c0 .53-.169.847-1.566.847a8.5 8.5 0 0 1-6.646-3.966l-.021-.035a17.46 17.46 0 0 1-3.43-7.142l-.022-.117c0-.317.127-.614.741-.614H8.96c.55 0 .762.254.975.846 1.078 3.112 2.878 5.842 3.619 5.842.275 0 .402-.127.402-.825v-3.219c-.085-1.482-.868-1.608-.868-2.137a.526.526 0 0 1 .551-.508h-.001 3.429c.466 0 .635.254.635.804v4.34c0 .465.212.635.339.635.275 0 .509-.17 1.016-.677a18.454 18.454 0 0 0 2.642-4.346l.046-.12a.969.969 0 0 1 .9-.615l.056.002h-.003 2.179c.656 0 .805.337.656.804a27.487 27.487 0 0 1-2.994 5.111l.052-.074c-.232.381-.317.55 0 .975.232.317.995.973 1.503 1.566a9.456 9.456 0 0 1 1.816 2.507l.025.055c.212.612-.106.93-.72.93zM20.604 1.004h-9.207c-8.403 0-10.392 1.989-10.392 10.392v9.207c0 8.403 1.989 10.392 10.392 10.392h9.207c8.403 0 10.392-1.989 10.392-10.392v-9.207c0-8.403-2.011-10.392-10.392-10.392z"/></svg>